<svg id="svg" version="1.1" xmlns="http://www.w3.org/2000/svg" xmlns:xlink="http://www.w3.org/1999/xlink" width="400" height="400" viewBox="0, 0, 400,400"><g id="svgg"><path id="path0" d="M22.740 105.427 C 22.631 105.632,22.299 106.571,22.003 107.513 C 21.639 108.667,21.357 109.059,21.138 108.713 C 20.921 108.372,20.810 108.543,20.806 109.225 C 20.803 109.788,20.451 110.624,20.024 111.082 C 19.597 111.540,19.332 111.998,19.434 112.100 C 19.536 112.202,19.345 112.514,19.010 112.792 C 18.674 113.070,18.400 113.548,18.400 113.854 C 18.400 114.160,18.232 114.723,18.026 115.105 C 17.821 115.487,17.417 116.385,17.129 117.100 C 16.840 117.815,16.469 118.400,16.302 118.400 C 16.136 118.400,16.000 118.760,16.000 119.200 C 16.000 119.640,15.820 120.000,15.600 120.000 C 15.380 120.000,15.200 120.439,15.200 120.976 C 15.200 121.513,15.020 122.064,14.800 122.200 C 14.580 122.336,14.400 122.797,14.400 123.224 C 14.400 123.651,14.220 124.000,14.000 124.000 C 13.780 124.000,13.600 124.349,13.600 124.776 C 13.600 125.203,13.420 125.664,13.200 125.800 C 12.980 125.936,12.800 126.487,12.800 127.024 C 12.800 127.561,12.664 128.000,12.497 128.000 C 12.172 128.000,11.200 130.816,11.200 131.760 C 11.200 132.075,11.065 132.393,10.900 132.467 C 10.493 132.647,8.400 139.227,8.400 140.324 C 8.400 140.806,8.220 141.200,8.000 141.200 C 7.780 141.200,7.600 141.830,7.600 142.600 C 7.600 143.370,7.420 144.000,7.200 144.000 C 6.980 144.000,6.800 144.619,6.800 145.376 C 6.800 146.133,6.620 146.864,6.400 147.000 C 6.180 147.136,6.000 147.777,6.000 148.424 C 6.000 149.071,5.820 149.600,5.600 149.600 C 5.380 149.600,5.200 150.320,5.200 151.200 C 5.200 152.080,5.020 152.800,4.800 152.800 C 4.580 152.800,4.400 153.700,4.400 154.800 C 4.400 155.900,4.220 156.800,4.000 156.800 C 3.780 156.800,3.600 157.509,3.600 158.376 C 3.600 159.243,3.420 160.064,3.200 160.200 C 2.980 160.336,2.800 161.337,2.800 162.424 C 2.800 163.511,2.620 164.400,2.400 164.400 C 2.178 164.400,2.000 165.467,2.000 166.800 C 2.000 168.133,1.822 169.200,1.600 169.200 C 1.372 169.200,1.200 170.389,1.200 171.967 C 1.200 173.824,1.036 174.788,0.700 174.900 C -0.050 175.150,-0.028 224.002,0.722 224.906 C 1.015 225.260,1.259 226.607,1.279 227.979 C 1.298 229.323,1.451 230.508,1.619 230.612 C 1.788 230.716,1.831 230.440,1.715 229.998 C 1.169 227.908,-0.757 228.000,43.637 228.000 L 84.776 228.000 84.901 233.100 C 84.970 235.905,85.067 225.330,85.117 209.600 C 85.216 178.704,85.181 179.222,87.396 175.443 C 88.871 172.926,91.656 170.506,94.627 169.159 L 97.182 168.000 115.891 167.994 C 126.181 167.991,134.813 167.852,135.074 167.686 C 135.427 167.462,135.582 162.010,135.682 146.392 L 135.815 125.400 136.770 123.000 C 139.407 116.374,144.453 111.949,150.972 110.549 C 154.595 109.772,295.862 109.784,299.491 110.563 C 306.690 112.107,312.267 117.518,314.219 124.852 C 315.264 128.780,315.059 215.477,313.996 218.918 C 312.453 223.914,308.924 228.076,304.251 230.411 C 302.943 231.065,302.165 231.600,302.524 231.600 C 302.882 231.600,303.817 231.240,304.600 230.800 C 305.383 230.360,306.207 230.000,306.430 230.000 C 306.654 230.000,307.288 229.548,307.840 228.997 L 308.843 227.993 353.322 228.000 C 377.785 228.004,398.006 228.005,398.258 228.003 C 398.510 228.002,398.825 227.235,398.958 226.300 C 399.092 225.365,399.332 223.880,399.493 223.000 C 400.039 220.007,399.860 175.700,399.300 175.140 C 398.998 174.838,398.800 173.563,398.800 171.920 C 398.800 170.373,398.627 169.200,398.400 169.200 C 398.180 169.200,398.000 168.221,398.000 167.024 C 398.000 165.827,397.820 164.736,397.600 164.600 C 397.380 164.464,397.200 163.474,397.200 162.400 C 397.200 161.326,397.020 160.336,396.800 160.200 C 396.580 160.064,396.400 159.243,396.400 158.376 C 396.400 157.509,396.220 156.800,396.000 156.800 C 395.780 156.800,395.600 155.900,395.600 154.800 C 395.600 153.700,395.420 152.800,395.200 152.800 C 394.980 152.800,394.800 152.080,394.800 151.200 C 394.800 150.320,394.620 149.600,394.400 149.600 C 394.180 149.600,394.000 149.071,394.000 148.424 C 394.000 147.777,393.820 147.136,393.600 147.000 C 393.380 146.864,393.200 146.234,393.200 145.600 C 393.200 144.966,393.020 144.336,392.800 144.200 C 392.580 144.064,392.400 143.333,392.400 142.576 C 392.400 141.819,392.220 141.200,392.000 141.200 C 391.780 141.200,391.600 140.790,391.600 140.289 C 391.600 139.444,390.010 134.028,389.225 132.200 C 389.036 131.760,388.592 130.739,388.237 129.932 C 387.883 129.124,387.481 127.906,387.345 127.224 C 387.208 126.541,386.940 125.886,386.748 125.768 C 386.557 125.650,386.400 125.203,386.400 124.776 C 386.400 124.349,386.220 124.000,386.000 124.000 C 385.780 124.000,385.600 123.651,385.600 123.224 C 385.600 122.797,385.420 122.336,385.200 122.200 C 384.980 122.064,384.800 121.513,384.800 120.976 C 384.800 120.439,384.620 120.000,384.400 120.000 C 384.180 120.000,384.000 119.629,384.000 119.176 C 384.000 118.723,383.820 118.464,383.600 118.600 C 383.373 118.740,383.200 118.404,383.200 117.824 C 383.200 117.261,383.020 116.800,382.800 116.800 C 382.580 116.800,382.400 116.440,382.400 116.000 C 382.400 115.560,382.220 115.200,382.000 115.200 C 381.780 115.200,381.600 114.840,381.600 114.400 C 381.600 113.960,381.420 113.600,381.200 113.600 C 380.980 113.600,380.800 113.358,380.800 113.061 C 380.800 112.386,379.670 110.091,379.192 109.795 C 378.996 109.674,378.951 109.265,379.092 108.887 C 379.315 108.293,379.261 108.272,378.691 108.736 C 378.114 109.205,378.052 109.166,378.195 108.426 C 378.295 107.905,378.074 107.403,377.619 107.119 C 377.212 106.865,376.971 106.420,377.082 106.130 C 377.250 105.693,346.722 105.602,200.442 105.602 C 59.421 105.602,23.594 105.703,23.572 106.101 C 23.556 106.375,23.407 106.252,23.241 105.827 C 23.074 105.401,22.849 105.221,22.740 105.427 M150.800 116.146 C 147.311 117.297,144.531 119.624,142.774 122.866 L 141.400 125.400 141.400 171.200 L 141.400 217.000 142.387 219.000 C 143.649 221.556,146.444 224.351,149.000 225.613 L 151.000 226.600 202.600 226.800 L 254.200 227.000 255.600 227.959 C 256.370 228.487,258.709 230.557,260.797 232.559 C 262.886 234.562,263.673 235.210,262.547 234.000 C 261.420 232.790,260.161 231.380,259.749 230.866 C 259.337 230.353,258.685 229.560,258.300 229.105 C 257.915 228.650,257.600 228.215,257.600 228.139 C 257.600 228.062,264.288 228.000,272.461 228.000 C 286.652 228.000,287.286 228.032,286.523 228.700 C 285.480 229.614,285.122 231.095,285.001 235.000 L 284.902 238.200 285.155 235.000 C 285.652 228.732,287.249 227.392,294.925 226.806 C 302.781 226.206,305.981 223.955,308.749 217.081 C 309.680 214.771,309.356 126.846,308.408 124.315 C 306.996 120.547,304.185 117.945,299.481 116.051 C 297.862 115.398,152.783 115.491,150.800 116.146 M249.067 130.464 C 251.053 131.779,252.114 133.865,252.389 137.000 L 252.600 139.400 258.400 139.600 C 269.216 139.973,274.717 144.772,275.129 154.193 L 275.291 157.893 278.518 158.162 C 282.370 158.483,284.303 159.429,285.893 161.770 L 287.000 163.400 287.000 176.663 L 287.000 189.926 285.762 191.463 C 283.851 193.836,281.871 194.785,278.800 194.800 C 275.319 194.817,275.307 194.829,275.142 199.000 C 274.901 205.095,272.247 209.246,266.900 211.889 L 263.842 213.400 226.876 213.512 C 202.516 213.586,189.141 213.482,187.655 213.208 C 180.481 211.885,175.883 206.473,175.280 198.644 L 175.000 195.000 171.800 194.796 C 163.956 194.295,163.196 192.654,163.211 176.251 C 163.226 160.348,164.032 158.615,171.674 158.047 L 175.000 157.800 175.257 154.637 C 176.080 144.488,181.174 139.968,192.200 139.600 L 198.200 139.400 198.437 137.192 C 198.844 133.415,200.956 130.340,203.697 129.535 C 204.194 129.389,214.243 129.299,226.030 129.335 L 247.459 129.400 249.067 130.464 M204.869 135.037 C 204.106 135.571,203.979 135.976,204.080 137.537 L 204.200 139.400 225.400 139.400 L 246.600 139.400 246.720 137.537 C 246.932 134.259,247.889 134.400,225.400 134.400 C 208.099 134.400,205.670 134.475,204.869 135.037 M188.519 145.200 C 186.357 145.653,185.310 146.203,183.674 147.748 C 180.879 150.386,181.000 149.080,181.000 176.600 L 181.000 201.400 182.075 203.228 C 183.309 205.327,185.664 207.114,187.874 207.627 C 190.049 208.132,261.023 208.100,262.847 207.594 C 264.929 207.015,266.791 205.643,268.185 203.660 L 269.400 201.932 269.509 176.967 C 269.631 149.023,269.784 150.643,266.735 147.720 C 264.004 145.103,266.083 145.241,226.340 145.035 C 206.203 144.930,189.455 145.003,188.519 145.200 M215.204 157.466 C 217.007 158.531,217.200 159.476,217.200 167.233 C 217.200 177.514,217.116 177.600,207.000 177.600 C 196.782 177.600,196.800 177.619,196.800 166.942 L 196.800 159.262 198.031 158.031 L 199.262 156.800 206.669 156.800 C 212.862 156.800,214.261 156.909,215.204 157.466 M251.913 157.424 C 253.752 158.712,254.000 159.887,254.000 167.313 L 254.000 174.267 252.647 175.833 L 251.293 177.400 244.261 177.526 C 233.242 177.722,233.063 177.540,233.268 166.339 L 233.400 159.133 234.706 157.966 L 236.013 156.800 243.517 156.800 C 249.670 156.800,251.183 156.912,251.913 157.424 M202.435 162.558 C 202.130 162.925,202.011 164.599,202.086 167.458 L 202.200 171.800 207.000 171.800 L 211.800 171.800 211.914 167.458 C 212.060 161.883,212.166 162.000,207.000 162.000 C 203.980 162.000,202.776 162.147,202.435 162.558 M238.892 162.468 C 238.563 162.797,238.400 164.392,238.400 167.272 C 238.400 172.375,238.053 172.097,244.200 171.917 L 248.200 171.800 248.200 167.000 L 248.200 162.200 243.792 162.088 C 240.705 162.009,239.237 162.123,238.892 162.468 M169.877 164.011 L 168.800 164.858 168.800 176.367 C 168.800 189.829,168.649 189.329,172.655 189.121 L 175.000 189.000 175.000 176.200 L 175.000 163.400 172.977 163.282 C 171.402 163.190,170.716 163.351,169.877 164.011 M275.200 176.357 C 275.200 190.452,275.032 189.600,277.807 189.600 C 281.835 189.600,282.076 188.770,281.919 175.427 C 281.777 163.338,281.870 163.600,277.738 163.600 L 275.200 163.600 275.200 176.357 M98.143 173.580 C 96.435 173.990,94.248 175.389,93.002 176.870 C 90.741 179.558,90.795 178.833,90.854 205.349 C 90.884 218.797,90.987 229.391,91.083 228.891 L 91.258 227.983 116.644 228.091 C 135.029 228.170,142.108 228.325,142.315 228.654 C 142.678 229.231,145.468 230.802,146.112 230.792 C 146.380 230.788,145.782 230.271,144.782 229.643 C 142.171 228.002,139.324 225.018,138.138 222.678 C 135.708 217.883,135.834 219.242,135.608 195.400 L 135.400 173.400 117.400 173.339 C 107.500 173.305,98.834 173.414,98.143 173.580 M235.418 193.382 C 236.598 194.562,236.662 195.587,235.636 196.856 C 234.762 197.936,219.475 198.552,216.366 197.632 C 214.465 197.069,213.759 195.626,214.594 194.011 C 215.384 192.484,215.273 192.500,225.518 192.446 L 234.436 192.400 235.418 193.382 M397.646 228.771 C 397.213 229.039,397.255 229.194,397.852 229.541 C 398.284 229.792,398.379 229.981,398.076 229.988 C 397.788 229.995,397.678 230.203,397.832 230.451 C 398.249 231.127,398.913 229.732,398.514 229.018 C 398.308 228.650,397.990 228.559,397.646 228.771 M149.200 232.005 C 149.530 232.216,150.325 232.391,150.967 232.394 C 152.514 232.402,152.177 232.171,150.200 231.868 C 149.110 231.701,148.791 231.745,149.200 232.005 M300.000 232.000 L 298.600 232.295 299.876 232.347 C 300.578 232.376,301.264 232.220,301.400 232.000 C 301.536 231.780,301.592 231.624,301.524 231.653 C 301.456 231.682,300.770 231.838,300.000 232.000 M187.160 232.797 C 221.253 232.997,221.724 233.011,222.032 233.800 C 222.334 234.574,222.345 234.573,222.372 233.743 C 222.417 232.382,222.805 232.395,186.867 232.497 L 152.600 232.593 187.160 232.797 M228.150 232.987 C 228.026 233.310,228.017 233.805,228.131 234.087 C 228.244 234.369,228.351 234.188,228.368 233.684 L 228.400 232.767 240.763 232.884 C 247.562 232.948,252.917 232.868,252.663 232.706 C 251.682 232.083,228.394 232.350,228.150 232.987 M293.700 232.691 C 294.525 232.778,295.875 232.778,296.700 232.691 C 297.525 232.605,296.850 232.534,295.200 232.534 C 293.550 232.534,292.875 232.605,293.700 232.691 " stroke="none" fill="#9956f2" fill-rule="evenodd"></path><path id="path1" d="M150.791 110.567 C 144.451 111.959,139.370 116.465,136.770 123.000 L 135.815 125.400 135.682 146.392 C 135.582 162.010,135.427 167.462,135.074 167.686 C 134.813 167.852,126.181 167.991,115.891 167.994 L 97.182 168.000 94.627 169.159 C 90.196 171.168,86.824 175.086,85.642 179.600 C 85.292 180.934,85.200 190.771,85.285 217.600 L 85.400 253.800 86.670 256.480 C 89.161 261.739,94.119 265.152,99.740 265.479 C 101.313 265.570,103.005 265.728,103.500 265.830 L 104.400 266.015 104.400 276.234 C 104.400 286.816,104.489 287.467,106.137 288.911 C 108.948 291.376,109.615 290.928,123.009 277.573 L 135.017 265.600 174.643 265.600 C 213.755 265.600,214.301 265.589,216.814 264.764 C 221.426 263.250,224.194 260.746,226.502 256.000 L 227.767 253.400 227.983 243.000 L 228.200 232.600 239.800 232.488 C 246.180 232.426,251.798 232.473,252.285 232.592 C 252.772 232.711,259.842 239.473,267.997 247.618 C 282.541 262.147,283.754 263.202,285.926 263.199 C 290.311 263.192,290.800 261.483,290.800 246.162 C 290.800 236.479,290.921 233.172,291.285 232.948 C 291.551 232.783,293.809 232.511,296.301 232.344 C 305.128 231.752,311.534 226.891,313.996 218.918 C 315.059 215.477,315.264 128.780,314.219 124.852 C 312.267 117.518,306.690 112.107,299.491 110.563 C 296.013 109.816,154.189 109.821,150.791 110.567 M299.481 116.051 C 304.185 117.945,306.996 120.547,308.408 124.315 C 309.356 126.846,309.680 214.771,308.749 217.081 C 305.982 223.953,302.781 226.206,294.933 226.805 C 285.439 227.530,285.200 227.956,285.200 244.157 C 285.200 250.644,285.054 256.043,284.875 256.154 C 284.696 256.264,278.531 250.321,271.175 242.948 C 263.819 235.574,256.990 228.969,256.000 228.270 L 254.200 227.000 202.600 226.800 L 151.000 226.600 149.000 225.613 C 146.444 224.351,143.649 221.556,142.387 219.000 L 141.400 217.000 141.400 171.200 L 141.400 125.400 142.774 122.866 C 144.531 119.624,147.311 117.297,150.800 116.146 C 152.783 115.491,297.862 115.398,299.481 116.051 M203.697 129.535 C 200.956 130.340,198.844 133.415,198.437 137.192 L 198.200 139.400 192.200 139.600 C 181.174 139.968,176.080 144.488,175.257 154.637 L 175.000 157.800 171.674 158.047 C 164.032 158.615,163.226 160.348,163.211 176.251 C 163.196 192.654,163.956 194.295,171.800 194.796 L 175.000 195.000 175.280 198.644 C 175.883 206.473,180.481 211.885,187.655 213.208 C 189.141 213.482,202.516 213.586,226.876 213.512 L 263.842 213.400 266.900 211.889 C 272.247 209.246,274.901 205.095,275.142 199.000 C 275.307 194.829,275.319 194.817,278.800 194.800 C 281.871 194.785,283.851 193.836,285.762 191.463 L 287.000 189.926 287.000 176.663 L 287.000 163.400 285.893 161.770 C 284.303 159.429,282.370 158.483,278.518 158.162 L 275.291 157.893 275.129 154.193 C 274.717 144.772,269.216 139.973,258.400 139.600 L 252.600 139.400 252.389 137.000 C 252.114 133.865,251.053 131.779,249.067 130.464 L 247.459 129.400 226.030 129.335 C 214.243 129.299,204.194 129.389,203.697 129.535 M245.931 135.037 C 246.694 135.571,246.821 135.976,246.720 137.537 L 246.600 139.400 225.400 139.400 L 204.200 139.400 204.080 137.537 C 203.868 134.259,202.911 134.400,225.400 134.400 C 242.701 134.400,245.130 134.475,245.931 135.037 M263.940 145.831 C 265.785 146.601,267.844 148.562,268.844 150.501 C 269.588 151.946,269.613 152.953,269.509 176.967 L 269.400 201.932 268.185 203.660 C 266.791 205.643,264.929 207.015,262.847 207.594 C 261.023 208.100,190.049 208.132,187.874 207.627 C 185.664 207.114,183.309 205.327,182.075 203.228 L 181.000 201.400 181.000 176.600 C 181.000 149.080,180.879 150.386,183.674 147.748 C 185.310 146.203,186.357 145.653,188.519 145.200 C 191.687 144.536,262.250 145.127,263.940 145.831 M198.031 158.031 L 196.800 159.262 196.800 166.942 C 196.800 177.619,196.782 177.600,207.000 177.600 C 217.116 177.600,217.200 177.514,217.200 167.233 C 217.200 156.568,217.434 156.800,206.669 156.800 L 199.262 156.800 198.031 158.031 M234.706 157.966 L 233.400 159.133 233.268 166.339 C 233.063 177.540,233.242 177.722,244.261 177.526 L 251.293 177.400 252.647 175.833 L 254.000 174.267 254.000 167.313 C 254.000 156.688,254.112 156.800,243.517 156.800 L 236.013 156.800 234.706 157.966 M211.565 162.558 C 211.870 162.925,211.989 164.599,211.914 167.458 L 211.800 171.800 207.000 171.800 L 202.200 171.800 202.086 167.458 C 201.940 161.883,201.834 162.000,207.000 162.000 C 210.020 162.000,211.224 162.147,211.565 162.558 M248.200 167.000 L 248.200 171.800 244.200 171.917 C 238.053 172.097,238.400 172.375,238.400 167.272 C 238.400 161.797,238.245 161.947,243.792 162.088 L 248.200 162.200 248.200 167.000 M175.000 176.200 L 175.000 189.000 172.655 189.121 C 168.649 189.329,168.800 189.829,168.800 176.367 L 168.800 164.858 169.877 164.011 C 170.716 163.351,171.402 163.190,172.977 163.282 L 175.000 163.400 175.000 176.200 M281.038 164.441 C 281.738 165.214,281.810 166.108,281.919 175.427 C 282.076 188.770,281.835 189.600,277.807 189.600 C 275.032 189.600,275.200 190.452,275.200 176.357 L 275.200 163.600 277.738 163.600 C 279.809 163.600,280.416 163.755,281.038 164.441 M135.608 195.400 C 135.835 219.258,135.706 217.878,138.153 222.708 C 140.311 226.966,145.917 231.100,150.755 231.999 C 152.084 232.247,166.018 232.402,187.155 232.406 C 205.990 232.409,221.640 232.564,221.932 232.750 C 222.833 233.321,222.408 251.657,221.443 253.903 C 220.523 256.043,217.431 258.844,215.264 259.500 C 213.991 259.886,204.500 260.000,173.786 260.000 C 139.971 260.000,133.797 260.087,132.880 260.574 C 132.286 260.889,127.031 265.929,121.203 271.774 C 115.374 277.618,110.484 282.400,110.336 282.400 C 110.187 282.400,110.006 278.291,109.933 273.268 L 109.800 264.136 108.679 262.668 C 107.078 260.569,105.726 260.001,102.320 259.994 C 96.880 259.983,93.374 257.938,91.568 253.724 C 90.525 251.293,90.355 181.963,91.385 179.497 C 92.546 176.719,95.372 174.245,98.143 173.580 C 98.834 173.414,107.500 173.305,117.400 173.339 L 135.400 173.400 135.608 195.400 M215.895 192.677 C 213.521 193.296,213.863 196.891,216.366 197.632 C 219.475 198.552,234.762 197.936,235.636 196.856 C 236.662 195.587,236.598 194.562,235.418 193.382 L 234.436 192.400 225.518 192.446 C 220.613 192.472,216.283 192.576,215.895 192.677 " stroke="none" fill="#b7e2f4" fill-rule="evenodd"></path><path id="path2" d="M371.605 303.591 C 371.259 304.236,371.294 304.339,371.791 304.148 C 372.126 304.020,372.400 303.664,372.400 303.357 C 372.400 302.576,372.101 302.664,371.605 303.591 M370.235 305.454 C 370.125 305.740,370.252 306.099,370.517 306.251 C 370.783 306.404,370.868 306.382,370.706 306.204 C 370.545 306.025,370.703 305.666,371.059 305.406 C 371.644 304.979,371.645 304.933,371.070 304.933 C 370.720 304.933,370.345 305.168,370.235 305.454 M29.794 306.766 C 30.282 307.253,30.459 307.253,31.080 306.766 C 31.710 306.271,31.746 306.275,31.366 306.800 C 30.925 307.411,31.573 310.693,32.042 310.224 C 32.161 310.106,32.685 310.772,33.207 311.704 C 33.728 312.637,34.392 313.640,34.681 313.932 C 34.971 314.225,35.088 314.658,34.942 314.894 C 34.785 315.149,34.864 315.207,35.138 315.038 C 35.415 314.867,35.600 315.013,35.600 315.400 C 35.600 315.756,35.780 315.936,36.000 315.800 C 36.220 315.664,36.400 315.833,36.400 316.176 C 36.400 316.519,36.580 316.800,36.800 316.800 C 37.020 316.800,37.200 317.042,37.200 317.338 C 37.200 317.634,37.560 318.202,38.000 318.600 C 38.440 318.998,38.800 319.572,38.800 319.874 C 38.800 320.177,39.520 321.087,40.400 321.896 C 41.280 322.705,42.000 323.598,42.000 323.880 C 42.000 324.163,42.540 324.875,43.200 325.463 C 43.860 326.051,44.400 326.772,44.400 327.066 C 44.400 327.360,44.610 327.600,44.867 327.600 C 45.123 327.600,45.232 327.701,45.108 327.825 C 44.984 327.949,45.545 328.714,46.355 329.525 C 47.165 330.336,48.268 331.630,48.807 332.400 C 49.796 333.815,57.058 341.192,57.280 341.007 C 57.346 340.952,57.811 341.333,58.314 341.854 C 58.817 342.374,59.141 342.800,59.035 342.800 C 58.648 342.800,66.238 350.237,67.600 351.192 C 68.370 351.732,69.653 352.847,70.451 353.669 C 71.250 354.491,72.015 355.052,72.151 354.915 C 72.288 354.779,72.400 354.907,72.400 355.200 C 72.400 355.493,72.508 355.625,72.640 355.493 C 72.772 355.361,73.498 355.871,74.253 356.627 C 75.009 357.382,75.779 358.000,75.965 358.000 C 76.151 358.000,77.045 358.720,77.952 359.600 C 78.859 360.480,79.831 361.200,80.112 361.200 C 80.393 361.200,80.883 361.560,81.200 362.000 C 81.517 362.440,81.980 362.800,82.229 362.800 C 82.478 362.800,83.246 363.340,83.937 364.000 C 84.628 364.660,85.425 365.200,85.708 365.200 C 85.991 365.200,86.483 365.560,86.800 366.000 C 87.117 366.440,87.657 366.800,88.000 366.800 C 88.343 366.800,88.883 367.160,89.200 367.600 C 89.517 368.040,90.057 368.400,90.400 368.400 C 90.743 368.400,91.283 368.760,91.600 369.200 C 91.917 369.640,92.329 370.000,92.516 370.000 C 92.703 370.000,93.641 370.540,94.600 371.200 C 95.559 371.860,96.522 372.400,96.739 372.400 C 96.956 372.400,97.193 372.535,97.267 372.700 C 97.447 373.105,101.389 375.200,101.971 375.200 C 102.225 375.200,102.820 375.560,103.292 376.000 C 103.764 376.440,104.387 376.800,104.675 376.800 C 104.964 376.800,105.200 376.980,105.200 377.200 C 105.200 377.420,105.560 377.600,106.000 377.600 C 106.440 377.600,106.800 377.780,106.800 378.000 C 106.800 378.220,107.160 378.400,107.600 378.400 C 108.040 378.400,108.400 378.580,108.400 378.800 C 108.400 379.020,108.745 379.200,109.167 379.200 C 109.588 379.200,109.993 379.335,110.067 379.500 C 110.140 379.665,111.100 380.225,112.200 380.744 C 113.300 381.263,114.513 381.848,114.895 382.044 C 115.277 382.240,115.862 382.400,116.195 382.400 C 116.528 382.400,116.800 382.580,116.800 382.800 C 116.800 383.020,117.160 383.200,117.600 383.200 C 118.040 383.200,118.400 383.380,118.400 383.600 C 118.400 383.820,118.760 384.000,119.200 384.000 C 119.640 384.000,120.000 384.180,120.000 384.400 C 120.000 384.620,120.349 384.800,120.776 384.800 C 121.203 384.800,121.664 384.980,121.800 385.200 C 121.936 385.420,122.487 385.600,123.024 385.600 C 123.561 385.600,124.000 385.780,124.000 386.000 C 124.000 386.220,124.360 386.400,124.800 386.400 C 125.240 386.400,125.600 386.580,125.600 386.800 C 125.600 387.020,125.962 387.200,126.405 387.200 C 126.848 387.200,127.523 387.359,127.905 387.553 C 128.840 388.029,130.307 388.618,132.000 389.200 C 132.770 389.464,133.760 389.823,134.200 389.997 C 136.018 390.715,139.355 391.600,140.246 391.600 C 140.771 391.600,141.200 391.780,141.200 392.000 C 141.200 392.220,141.830 392.400,142.600 392.400 C 143.370 392.400,144.000 392.580,144.000 392.800 C 144.000 393.020,144.529 393.200,145.176 393.200 C 145.823 393.200,146.464 393.380,146.600 393.600 C 146.736 393.820,147.467 394.000,148.224 394.000 C 148.981 394.000,149.600 394.180,149.600 394.400 C 149.600 394.620,150.320 394.800,151.200 394.800 C 152.080 394.800,152.800 394.980,152.800 395.200 C 152.800 395.420,153.509 395.600,154.376 395.600 C 155.243 395.600,156.064 395.780,156.200 396.000 C 156.336 396.220,157.247 396.400,158.224 396.400 C 159.201 396.400,160.000 396.580,160.000 396.800 C 160.000 397.020,160.990 397.200,162.200 397.200 C 163.410 397.200,164.400 397.380,164.400 397.600 C 164.400 397.820,165.379 398.000,166.576 398.000 C 167.773 398.000,168.864 398.180,169.000 398.400 C 169.136 398.620,170.482 398.800,171.990 398.800 C 173.829 398.800,174.788 398.965,174.900 399.300 C 175.144 400.032,224.856 400.032,225.100 399.300 C 225.212 398.965,226.171 398.800,228.010 398.800 C 229.518 398.800,230.864 398.620,231.000 398.400 C 231.136 398.180,232.216 398.000,233.400 398.000 C 234.584 398.000,235.664 397.820,235.800 397.600 C 235.936 397.380,236.937 397.200,238.024 397.200 C 239.111 397.200,240.000 397.020,240.000 396.800 C 240.000 396.580,240.709 396.400,241.576 396.400 C 242.443 396.400,243.264 396.220,243.400 396.000 C 243.536 395.780,244.447 395.600,245.424 395.600 C 246.401 395.600,247.200 395.420,247.200 395.200 C 247.200 394.980,247.920 394.800,248.800 394.800 C 249.680 394.800,250.400 394.620,250.400 394.400 C 250.400 394.180,251.019 394.000,251.776 394.000 C 252.533 394.000,253.264 393.820,253.400 393.600 C 253.536 393.380,254.177 393.200,254.824 393.200 C 255.471 393.200,256.000 393.020,256.000 392.800 C 256.000 392.580,256.630 392.400,257.400 392.400 C 258.170 392.400,258.800 392.220,258.800 392.000 C 258.800 391.780,259.229 391.600,259.754 391.600 C 260.778 391.600,264.553 390.560,265.695 389.963 C 266.077 389.763,266.664 389.600,267.000 389.600 C 267.336 389.600,267.923 389.441,268.305 389.247 C 268.687 389.052,269.540 388.671,270.200 388.400 C 270.860 388.129,271.713 387.748,272.095 387.553 C 272.477 387.359,273.152 387.200,273.595 387.200 C 274.038 387.200,274.400 387.020,274.400 386.800 C 274.400 386.580,274.760 386.400,275.200 386.400 C 275.640 386.400,276.000 386.220,276.000 386.000 C 276.000 385.780,276.540 385.600,277.200 385.600 C 277.860 385.600,278.400 385.420,278.400 385.200 C 278.400 384.980,278.760 384.800,279.200 384.800 C 279.640 384.800,280.000 384.620,280.000 384.400 C 280.000 384.180,280.360 384.000,280.800 384.000 C 281.240 384.000,281.600 383.820,281.600 383.600 C 281.600 383.380,281.872 383.200,282.205 383.200 C 282.538 383.200,283.168 383.020,283.605 382.800 C 284.042 382.580,284.758 382.220,285.195 382.000 C 285.632 381.780,286.262 381.600,286.595 381.600 C 286.928 381.600,287.201 381.465,287.201 381.300 C 287.202 381.135,288.192 380.550,289.400 380.000 C 290.608 379.450,291.598 378.865,291.599 378.700 C 291.599 378.535,291.960 378.400,292.400 378.400 C 292.840 378.400,293.200 378.220,293.200 378.000 C 293.200 377.780,293.560 377.600,294.000 377.600 C 294.440 377.600,294.800 377.420,294.800 377.200 C 294.800 376.980,295.036 376.800,295.325 376.800 C 295.613 376.800,296.236 376.440,296.708 376.000 C 297.180 375.560,297.737 375.200,297.946 375.200 C 298.486 375.200,302.573 373.069,302.733 372.704 C 302.807 372.537,303.044 372.400,303.261 372.400 C 303.478 372.400,304.441 371.860,305.400 371.200 C 306.359 370.540,307.297 370.000,307.484 370.000 C 307.671 370.000,308.083 369.640,308.400 369.200 C 308.717 368.760,309.257 368.400,309.600 368.400 C 309.943 368.400,310.483 368.040,310.800 367.600 C 311.117 367.160,311.657 366.800,312.000 366.800 C 312.343 366.800,312.883 366.440,313.200 366.000 C 313.517 365.560,314.009 365.200,314.292 365.200 C 314.575 365.200,315.372 364.660,316.063 364.000 C 316.754 363.340,317.522 362.800,317.771 362.800 C 318.020 362.800,318.483 362.440,318.800 362.000 C 319.117 361.560,319.625 361.200,319.928 361.200 C 320.231 361.200,320.983 360.660,321.600 360.000 C 322.217 359.340,322.836 358.800,322.977 358.800 C 323.252 358.800,323.711 358.432,325.596 356.700 C 326.254 356.095,326.970 355.600,327.186 355.600 C 327.402 355.600,328.349 354.833,329.289 353.895 C 330.230 352.957,331.630 351.745,332.400 351.202 C 333.752 350.249,341.340 342.800,340.959 342.800 C 340.856 342.800,341.183 342.374,341.686 341.854 C 342.189 341.333,342.661 340.959,342.736 341.023 C 342.970 341.222,350.158 333.870,351.166 332.400 C 351.694 331.630,352.503 330.616,352.963 330.146 C 353.423 329.676,354.250 328.701,354.800 327.978 C 355.350 327.256,356.205 326.237,356.700 325.714 C 357.195 325.191,357.600 324.578,357.600 324.350 C 357.600 324.123,358.410 323.127,359.400 322.137 C 360.390 321.147,361.200 320.081,361.200 319.768 C 361.200 319.456,361.380 319.200,361.600 319.200 C 361.820 319.200,362.000 318.930,362.000 318.600 C 362.000 318.270,362.180 318.000,362.400 318.000 C 362.620 318.000,362.800 317.770,362.800 317.488 C 362.800 317.207,363.160 316.717,363.600 316.400 C 364.040 316.083,364.400 315.583,364.400 315.288 C 364.400 314.985,364.601 314.877,364.862 315.038 C 365.127 315.202,365.216 315.149,365.070 314.913 C 364.931 314.688,365.168 314.099,365.596 313.604 C 366.025 313.110,366.484 312.366,366.615 311.952 C 366.746 311.539,367.022 311.200,367.227 311.200 C 367.432 311.200,367.600 310.919,367.600 310.576 C 367.600 310.233,367.780 310.064,368.000 310.200 C 368.220 310.336,368.400 310.167,368.400 309.824 C 368.400 309.481,368.175 309.192,367.900 309.183 C 367.625 309.174,368.030 308.803,368.800 308.359 C 369.570 307.914,369.915 307.635,369.567 307.737 C 369.208 307.843,368.933 307.688,368.933 307.379 C 368.933 307.080,369.053 306.909,369.200 307.000 C 369.347 307.091,369.467 306.948,369.467 306.682 C 369.467 306.307,331.867 306.200,199.348 306.200 C 52.724 306.200,29.307 306.278,29.794 306.766 " stroke="none" fill="#469ee8" fill-rule="evenodd"></path><path id="path3" d="M1.370 229.349 C 1.386 230.103,1.535 230.638,1.700 230.537 C 1.865 230.436,2.000 231.523,2.000 232.953 C 2.000 234.383,2.180 235.664,2.400 235.800 C 2.620 235.936,2.800 236.836,2.800 237.800 C 2.800 238.764,2.980 239.664,3.200 239.800 C 3.420 239.936,3.600 240.746,3.600 241.600 C 3.600 242.454,3.780 243.264,4.000 243.400 C 4.220 243.536,4.400 244.447,4.400 245.424 C 4.400 246.401,4.580 247.200,4.800 247.200 C 5.020 247.200,5.200 247.920,5.200 248.800 C 5.200 249.680,5.380 250.400,5.600 250.400 C 5.820 250.400,6.000 251.030,6.000 251.800 C 6.000 252.570,6.180 253.200,6.400 253.200 C 6.620 253.200,6.800 253.729,6.800 254.376 C 6.800 255.023,6.980 255.664,7.200 255.800 C 7.420 255.936,7.600 256.667,7.600 257.424 C 7.600 258.181,7.780 258.800,8.000 258.800 C 8.220 258.800,8.400 259.220,8.400 259.733 C 8.400 260.247,8.533 260.799,8.695 260.962 C 8.857 261.124,9.001 261.469,9.015 261.728 C 9.077 262.905,9.725 265.230,10.045 265.428 C 10.240 265.549,10.400 265.999,10.400 266.429 C 10.400 266.859,10.580 267.568,10.800 268.005 C 11.020 268.442,11.380 269.158,11.600 269.595 C 11.820 270.032,12.000 270.664,12.000 271.000 C 12.000 271.336,12.160 271.923,12.356 272.305 C 13.217 273.984,14.387 276.726,14.871 278.200 C 15.159 279.080,15.487 279.890,15.598 280.000 C 16.075 280.472,16.800 282.037,16.800 282.595 C 16.800 282.928,16.980 283.200,17.200 283.200 C 17.420 283.200,17.600 283.545,17.600 283.967 C 17.600 284.388,17.764 284.793,17.963 284.867 C 18.163 284.940,18.388 285.360,18.463 285.800 C 18.539 286.240,18.691 286.690,18.802 286.800 C 19.258 287.250,21.600 292.152,21.600 292.656 C 21.600 292.955,21.780 293.200,22.000 293.200 C 22.220 293.200,22.400 293.436,22.400 293.725 C 22.400 294.013,22.760 294.636,23.200 295.108 C 23.640 295.580,24.000 296.244,24.000 296.583 C 24.000 296.922,24.180 297.200,24.400 297.200 C 24.620 297.200,24.800 297.560,24.800 298.000 C 24.800 298.440,24.980 298.800,25.200 298.800 C 25.420 298.800,25.600 299.149,25.600 299.576 C 25.600 300.003,25.768 300.457,25.974 300.584 C 26.180 300.711,26.831 301.802,27.421 303.008 C 28.011 304.213,28.753 305.200,29.071 305.200 C 29.388 305.200,29.545 305.365,29.420 305.568 C 28.916 306.383,40.447 306.433,201.862 306.319 C 313.566 306.240,369.440 306.334,369.273 306.600 C 368.813 307.334,368.873 307.947,369.385 307.750 C 369.664 307.643,370.097 307.104,370.349 306.553 C 370.612 305.975,370.637 305.653,370.408 305.795 C 370.175 305.939,370.111 305.776,370.254 305.404 C 370.389 305.053,370.595 304.862,370.713 304.979 C 371.089 305.356,371.960 304.362,371.745 303.801 C 371.631 303.504,371.921 303.057,372.388 302.806 C 372.988 302.486,373.165 302.119,372.989 301.566 C 372.820 301.033,372.911 300.815,373.270 300.890 C 373.591 300.957,373.750 300.708,373.673 300.260 C 373.597 299.816,373.717 299.625,373.973 299.783 C 374.208 299.929,374.400 299.767,374.400 299.424 C 374.400 299.081,374.591 298.800,374.824 298.800 C 375.057 298.800,375.145 298.635,375.020 298.432 C 374.895 298.230,375.064 297.793,375.396 297.461 C 375.728 297.129,376.000 296.574,376.000 296.229 C 376.000 295.883,376.180 295.600,376.400 295.600 C 376.620 295.600,376.800 295.364,376.800 295.075 C 376.800 294.787,377.160 294.164,377.600 293.692 C 378.040 293.220,378.400 292.671,378.400 292.473 C 378.400 291.947,380.947 287.024,381.300 286.867 C 381.465 286.793,381.600 286.298,381.600 285.767 C 381.600 285.235,381.780 284.800,382.000 284.800 C 382.220 284.800,382.400 284.440,382.400 284.000 C 382.400 283.560,382.580 283.200,382.800 283.200 C 383.020 283.200,383.200 282.928,383.200 282.595 C 383.200 281.955,383.995 280.353,384.498 279.978 C 384.662 279.855,384.836 279.270,384.885 278.678 C 384.934 278.085,385.115 277.600,385.287 277.600 C 385.459 277.600,385.600 277.251,385.600 276.824 C 385.600 276.397,385.780 275.936,386.000 275.800 C 386.220 275.664,386.400 275.203,386.400 274.776 C 386.400 274.349,386.580 274.000,386.800 274.000 C 387.020 274.000,387.200 273.651,387.200 273.224 C 387.200 272.797,387.380 272.336,387.600 272.200 C 387.820 272.064,388.000 271.601,388.000 271.171 C 388.000 270.741,388.159 270.077,388.353 269.695 C 388.984 268.455,389.537 267.033,390.025 265.400 C 390.287 264.520,390.662 263.382,390.856 262.870 C 391.051 262.359,391.115 261.786,390.999 261.598 C 390.882 261.409,390.970 261.142,391.193 261.004 C 391.417 260.866,391.600 260.324,391.600 259.800 C 391.600 259.276,391.780 258.736,392.000 258.600 C 392.220 258.464,392.400 257.834,392.400 257.200 C 392.400 256.566,392.580 255.936,392.800 255.800 C 393.020 255.664,393.200 255.023,393.200 254.376 C 393.200 253.729,393.380 253.200,393.600 253.200 C 393.820 253.200,394.000 252.570,394.000 251.800 C 394.000 251.030,394.180 250.400,394.400 250.400 C 394.620 250.400,394.800 249.691,394.800 248.824 C 394.800 247.957,394.980 247.136,395.200 247.000 C 395.420 246.864,395.600 246.054,395.600 245.200 C 395.600 244.346,395.780 243.536,396.000 243.400 C 396.220 243.264,396.400 242.454,396.400 241.600 C 396.400 240.746,396.580 239.936,396.800 239.800 C 397.020 239.664,397.200 238.663,397.200 237.576 C 397.200 236.265,397.368 235.598,397.700 235.594 C 398.033 235.590,398.000 235.458,397.600 235.200 C 397.147 234.907,397.131 234.811,397.536 234.806 C 397.938 234.802,398.037 234.203,397.936 232.399 C 397.809 230.158,398.067 229.340,398.535 230.500 C 398.687 230.877,398.745 230.880,398.768 230.514 C 398.786 230.247,398.416 229.822,397.946 229.571 C 397.277 229.213,397.210 229.041,397.635 228.778 C 397.964 228.575,398.299 228.632,398.483 228.921 C 398.690 229.246,398.790 229.178,398.794 228.707 C 398.800 228.053,396.225 228.013,353.821 228.003 L 308.843 227.993 307.840 228.997 C 307.288 229.549,306.654 230.000,306.430 230.000 C 306.207 230.000,305.383 230.360,304.600 230.800 C 303.817 231.240,302.857 231.600,302.468 231.600 C 302.079 231.600,301.578 231.782,301.355 232.005 C 301.132 232.228,298.891 232.522,296.375 232.660 C 290.227 232.995,290.800 231.583,290.800 246.388 C 290.800 261.457,290.297 263.192,285.926 263.199 C 283.787 263.201,282.663 262.229,268.344 247.985 C 260.345 240.027,253.383 233.354,252.874 233.158 C 252.365 232.961,246.661 232.800,240.198 232.800 L 228.449 232.800 228.235 234.500 C 228.118 235.435,227.961 240.070,227.888 244.800 L 227.754 253.400 226.496 256.000 C 224.203 260.739,221.430 263.249,216.814 264.764 C 214.301 265.589,213.755 265.600,174.643 265.600 L 135.017 265.600 123.009 277.573 C 109.615 290.928,108.948 291.376,106.137 288.911 C 104.489 287.467,104.400 286.816,104.400 276.234 L 104.400 266.015 103.500 265.830 C 103.005 265.728,101.313 265.570,99.740 265.479 C 94.119 265.152,89.161 261.739,86.670 256.480 L 85.400 253.800 85.140 244.600 C 84.997 239.540,84.862 233.735,84.840 231.700 L 84.800 228.000 43.624 228.000 C 13.956 228.000,2.371 228.124,2.174 228.443 C 1.975 228.764,1.823 228.761,1.620 228.432 C 1.465 228.182,1.353 228.595,1.370 229.349 M91.052 229.241 C 90.376 232.620,90.782 251.892,91.568 253.724 C 93.374 257.938,96.880 259.983,102.320 259.994 C 105.726 260.001,107.078 260.569,108.679 262.668 L 109.800 264.136 109.933 273.268 C 110.006 278.291,110.187 282.400,110.336 282.400 C 110.484 282.400,115.374 277.618,121.203 271.774 C 127.031 265.929,132.286 260.889,132.880 260.574 C 133.797 260.087,139.971 260.000,173.786 260.000 C 204.500 260.000,213.991 259.886,215.264 259.500 C 217.432 258.844,220.524 256.042,221.440 253.903 C 222.308 251.877,222.793 235.869,222.047 233.916 L 221.632 232.832 185.916 232.716 C 156.653 232.621,149.983 232.501,149.000 232.050 C 148.340 231.748,147.440 231.361,147.000 231.191 C 144.700 230.301,143.166 229.509,142.547 228.890 C 141.911 228.254,139.896 228.192,116.580 228.091 L 91.303 227.983 91.052 229.241 M257.851 228.483 C 259.638 231.374,284.270 256.527,284.921 256.125 C 285.152 255.982,285.260 251.161,285.195 243.845 C 285.083 231.275,285.208 229.853,286.523 228.700 C 287.286 228.032,286.651 228.000,272.438 228.000 C 260.917 228.000,257.620 228.109,257.851 228.483 M30.624 307.013 C 30.196 307.336,30.048 307.600,30.294 307.600 C 30.540 307.600,30.833 307.915,30.945 308.300 C 31.106 308.854,31.135 308.833,31.084 308.200 C 31.049 307.760,31.161 307.175,31.334 306.900 C 31.734 306.261,31.586 306.285,30.624 307.013 " stroke="none" fill="#6789ec" fill-rule="evenodd"></path><path id="path4" d="M178.300 0.275 C 176.375 0.361,174.800 0.604,174.800 0.816 C 174.800 1.027,173.461 1.200,171.824 1.200 C 170.187 1.200,168.736 1.380,168.600 1.600 C 168.464 1.820,167.564 2.000,166.600 2.000 C 165.636 2.000,164.736 2.180,164.600 2.400 C 164.464 2.620,163.373 2.800,162.176 2.800 C 160.979 2.800,160.000 2.980,160.000 3.200 C 160.000 3.420,159.201 3.600,158.224 3.600 C 157.247 3.600,156.336 3.780,156.200 4.000 C 156.064 4.220,155.243 4.400,154.376 4.400 C 153.509 4.400,152.800 4.580,152.800 4.800 C 152.800 5.020,152.080 5.200,151.200 5.200 C 150.320 5.200,149.600 5.380,149.600 5.600 C 149.600 5.820,148.880 6.000,148.000 6.000 C 147.120 6.000,146.400 6.180,146.400 6.400 C 146.400 6.620,145.860 6.800,145.200 6.800 C 144.540 6.800,144.000 6.980,144.000 7.200 C 144.000 7.420,143.370 7.600,142.600 7.600 C 141.830 7.600,141.200 7.780,141.200 8.000 C 141.200 8.220,140.771 8.400,140.246 8.400 C 139.355 8.400,136.018 9.285,134.200 10.003 C 133.760 10.177,132.770 10.536,132.000 10.800 C 130.307 11.382,128.840 11.971,127.905 12.447 C 127.523 12.641,126.848 12.800,126.405 12.800 C 125.962 12.800,125.600 12.980,125.600 13.200 C 125.600 13.420,125.240 13.600,124.800 13.600 C 124.360 13.600,124.000 13.780,124.000 14.000 C 124.000 14.220,123.561 14.400,123.024 14.400 C 122.487 14.400,121.936 14.580,121.800 14.800 C 121.664 15.020,121.203 15.200,120.776 15.200 C 120.349 15.200,120.000 15.380,120.000 15.600 C 120.000 15.820,119.640 16.000,119.200 16.000 C 118.760 16.000,118.400 16.180,118.400 16.400 C 118.400 16.620,118.128 16.800,117.795 16.800 C 117.462 16.800,116.877 16.962,116.495 17.159 C 116.113 17.357,114.180 18.300,112.200 19.255 C 110.220 20.211,108.540 21.129,108.467 21.296 C 108.393 21.463,107.988 21.600,107.567 21.600 C 107.145 21.600,106.800 21.780,106.800 22.000 C 106.800 22.220,106.440 22.400,106.000 22.400 C 105.560 22.400,105.200 22.580,105.200 22.800 C 105.200 23.020,104.880 23.200,104.488 23.200 C 104.097 23.200,103.517 23.560,103.200 24.000 C 102.883 24.440,102.387 24.800,102.098 24.800 C 101.549 24.800,97.547 26.723,97.200 27.153 C 97.090 27.290,96.508 27.655,95.907 27.965 C 95.305 28.274,94.458 28.859,94.023 29.264 C 93.589 29.669,92.996 30.000,92.705 30.000 C 92.414 30.000,91.917 30.360,91.600 30.800 C 91.283 31.240,90.743 31.600,90.400 31.600 C 90.057 31.600,89.517 31.960,89.200 32.400 C 88.883 32.840,88.343 33.200,88.000 33.200 C 87.657 33.200,87.117 33.560,86.800 34.000 C 86.483 34.440,85.991 34.800,85.708 34.800 C 85.425 34.800,84.628 35.340,83.937 36.000 C 83.246 36.660,82.478 37.200,82.229 37.200 C 81.980 37.200,81.517 37.560,81.200 38.000 C 80.883 38.440,80.293 38.800,79.888 38.800 C 79.484 38.800,79.264 38.980,79.400 39.200 C 79.536 39.420,79.406 39.600,79.112 39.600 C 78.817 39.600,78.317 39.960,78.000 40.400 C 77.683 40.840,77.259 41.200,77.059 41.200 C 76.858 41.200,76.358 41.588,75.947 42.061 C 75.536 42.535,75.200 42.786,75.200 42.619 C 75.200 42.452,74.678 42.874,74.040 43.558 C 73.401 44.241,72.682 44.800,72.442 44.800 C 72.201 44.800,71.085 45.700,69.961 46.800 C 68.838 47.900,67.747 48.800,67.536 48.800 C 67.325 48.800,67.281 49.008,67.438 49.262 C 67.611 49.541,67.548 49.615,67.279 49.449 C 67.022 49.290,65.073 50.969,62.659 53.428 C 60.362 55.768,58.329 57.838,58.141 58.028 C 57.954 58.218,55.997 60.135,53.793 62.287 C 51.590 64.439,49.342 66.830,48.799 67.600 C 48.255 68.370,47.043 69.770,46.105 70.711 C 45.167 71.651,44.400 72.588,44.400 72.792 C 44.400 72.997,43.961 73.603,43.424 74.139 C 42.888 74.676,42.558 75.224,42.691 75.358 C 42.824 75.491,42.723 75.600,42.467 75.600 C 42.210 75.600,42.000 75.881,42.000 76.224 C 42.000 76.567,41.820 76.736,41.600 76.600 C 41.380 76.464,41.200 76.633,41.200 76.976 C 41.200 77.319,41.020 77.600,40.800 77.600 C 40.580 77.600,40.400 77.793,40.400 78.029 C 40.400 78.668,39.342 79.604,38.983 79.281 C 38.812 79.126,38.794 79.213,38.944 79.474 C 39.093 79.735,38.762 80.402,38.208 80.956 C 37.653 81.510,37.200 82.125,37.200 82.322 C 37.200 82.520,36.660 83.246,36.000 83.937 C 35.340 84.628,34.800 85.382,34.800 85.613 C 34.800 85.844,34.440 86.420,34.000 86.892 C 33.560 87.364,33.200 87.987,33.200 88.275 C 33.200 88.564,33.020 88.800,32.800 88.800 C 32.580 88.800,32.400 89.070,32.400 89.400 C 32.400 89.730,32.220 90.000,32.000 90.000 C 31.780 90.000,31.600 90.230,31.600 90.512 C 31.600 90.793,31.240 91.283,30.800 91.600 C 30.360 91.917,30.000 92.402,30.000 92.677 C 30.000 93.163,27.903 96.439,26.900 97.519 C 26.453 98.000,26.365 98.273,26.414 99.014 C 26.422 99.132,26.150 99.507,25.811 99.847 C 25.471 100.186,25.295 100.630,25.420 100.832 C 25.545 101.035,25.446 101.200,25.200 101.200 C 24.954 101.200,24.855 101.365,24.980 101.568 C 25.105 101.770,24.936 102.206,24.605 102.538 C 23.889 103.254,23.187 104.984,23.232 105.926 C 23.251 106.341,23.341 106.408,23.465 106.101 C 23.625 105.703,59.573 105.602,200.475 105.602 C 346.728 105.602,377.250 105.693,377.082 106.130 C 376.971 106.420,377.222 106.871,377.640 107.132 C 378.104 107.422,378.400 107.450,378.400 107.203 C 378.400 106.982,378.220 106.800,378.000 106.800 C 377.780 106.800,377.600 106.452,377.600 106.027 C 377.600 105.602,377.240 105.140,376.800 105.000 C 376.360 104.860,376.000 104.568,376.000 104.349 C 376.000 104.131,376.208 104.081,376.462 104.238 C 376.748 104.415,376.815 104.348,376.638 104.062 C 376.481 103.808,376.093 103.600,375.776 103.600 C 375.417 103.600,375.195 103.185,375.187 102.500 C 375.174 101.356,374.314 99.869,373.860 100.206 C 373.717 100.313,373.688 100.282,373.797 100.137 C 373.905 99.992,373.770 99.597,373.497 99.260 C 373.086 98.753,373.104 98.700,373.600 98.953 C 373.930 99.121,373.867 98.988,373.460 98.656 C 373.053 98.325,372.839 97.861,372.984 97.627 C 373.129 97.392,373.052 97.200,372.814 97.200 C 372.575 97.200,372.200 96.795,371.980 96.300 C 371.760 95.805,371.133 94.786,370.587 94.036 C 370.041 93.286,369.674 92.592,369.773 92.494 C 369.871 92.396,369.509 91.873,368.968 91.332 C 368.427 90.791,368.069 90.213,368.171 90.047 C 368.273 89.881,368.007 89.493,367.579 89.185 C 367.150 88.876,366.800 88.343,366.800 88.000 C 366.800 87.657,366.440 87.117,366.000 86.800 C 365.560 86.483,365.200 85.975,365.200 85.672 C 365.200 85.369,364.660 84.617,364.000 84.000 C 363.340 83.383,362.800 82.631,362.800 82.328 C 362.800 82.025,362.440 81.517,362.000 81.200 C 361.560 80.883,361.200 80.375,361.200 80.072 C 361.200 79.769,360.660 79.017,360.000 78.400 C 359.340 77.783,358.800 77.071,358.800 76.816 C 358.800 76.561,358.620 76.464,358.400 76.600 C 358.180 76.736,358.000 76.567,358.000 76.224 C 358.000 75.881,357.790 75.600,357.533 75.600 C 357.277 75.600,357.180 75.486,357.319 75.347 C 357.458 75.208,357.038 74.596,356.386 73.987 C 355.734 73.378,355.200 72.682,355.200 72.442 C 355.200 72.201,354.300 71.085,353.200 69.961 C 352.100 68.838,351.200 67.747,351.200 67.536 C 351.200 67.325,350.992 67.281,350.738 67.438 C 350.459 67.611,350.385 67.548,350.551 67.279 C 350.710 67.022,349.031 65.073,346.572 62.659 C 344.232 60.362,342.162 58.329,341.972 58.141 C 341.782 57.954,339.865 55.997,337.713 53.793 C 335.561 51.590,333.172 49.342,332.405 48.799 C 331.638 48.255,330.135 46.953,329.065 45.905 C 327.995 44.857,326.949 44.000,326.741 44.000 C 326.534 44.000,325.930 43.595,325.401 43.100 C 323.937 41.731,323.260 41.200,322.977 41.200 C 322.836 41.200,322.217 40.660,321.600 40.000 C 320.983 39.340,320.280 38.800,320.036 38.800 C 319.792 38.800,319.028 38.260,318.337 37.600 C 317.646 36.940,316.878 36.400,316.629 36.400 C 316.380 36.400,315.917 36.040,315.600 35.600 C 315.283 35.160,314.743 34.800,314.400 34.800 C 314.057 34.800,313.517 34.440,313.200 34.000 C 312.883 33.560,312.343 33.200,312.000 33.200 C 311.657 33.200,311.117 32.840,310.800 32.400 C 310.483 31.960,309.943 31.600,309.600 31.600 C 309.257 31.600,308.717 31.240,308.400 30.800 C 308.083 30.360,307.671 30.000,307.484 30.000 C 307.297 30.000,306.359 29.460,305.400 28.800 C 304.441 28.140,303.478 27.600,303.261 27.600 C 303.044 27.600,302.807 27.463,302.733 27.296 C 302.573 26.931,298.486 24.800,297.946 24.800 C 297.737 24.800,297.180 24.440,296.708 24.000 C 296.236 23.560,295.613 23.200,295.325 23.200 C 295.036 23.200,294.800 23.020,294.800 22.800 C 294.800 22.580,294.440 22.400,294.000 22.400 C 293.560 22.400,293.200 22.220,293.200 22.000 C 293.200 21.780,292.840 21.600,292.400 21.600 C 291.960 21.600,291.599 21.465,291.599 21.300 C 291.598 21.135,290.608 20.550,289.400 20.000 C 288.192 19.450,287.202 18.865,287.201 18.700 C 287.201 18.535,286.921 18.400,286.581 18.400 C 286.240 18.400,285.216 18.040,284.306 17.600 C 283.395 17.160,282.414 16.800,282.125 16.800 C 281.836 16.800,281.600 16.620,281.600 16.400 C 281.600 16.180,281.240 16.000,280.800 16.000 C 280.360 16.000,280.000 15.820,280.000 15.600 C 280.000 15.380,279.640 15.200,279.200 15.200 C 278.760 15.200,278.400 15.059,278.400 14.887 C 278.400 14.715,277.905 14.534,277.300 14.484 C 276.695 14.434,276.140 14.215,276.067 13.997 C 275.993 13.778,275.588 13.600,275.167 13.600 C 274.745 13.600,274.400 13.420,274.400 13.200 C 274.400 12.980,274.038 12.800,273.595 12.800 C 273.152 12.800,272.477 12.641,272.095 12.447 C 271.713 12.252,270.860 11.871,270.200 11.600 C 269.540 11.329,268.687 10.948,268.305 10.753 C 267.923 10.559,267.336 10.400,267.000 10.400 C 266.664 10.400,266.077 10.237,265.695 10.037 C 264.553 9.440,260.778 8.400,259.754 8.400 C 259.229 8.400,258.800 8.220,258.800 8.000 C 258.800 7.780,258.181 7.600,257.424 7.600 C 256.667 7.600,255.936 7.420,255.800 7.200 C 255.664 6.980,255.124 6.800,254.600 6.800 C 254.076 6.800,253.536 6.620,253.400 6.400 C 253.264 6.180,252.533 6.000,251.776 6.000 C 251.019 6.000,250.400 5.820,250.400 5.600 C 250.400 5.380,249.680 5.200,248.800 5.200 C 247.920 5.200,247.200 5.020,247.200 4.800 C 247.200 4.580,246.491 4.400,245.624 4.400 C 244.757 4.400,243.936 4.220,243.800 4.000 C 243.664 3.780,242.753 3.600,241.776 3.600 C 240.799 3.600,240.000 3.420,240.000 3.200 C 240.000 2.980,239.100 2.800,238.000 2.800 C 236.900 2.800,236.000 2.620,236.000 2.400 C 236.000 2.178,234.941 2.000,233.624 2.000 C 232.317 2.000,231.136 1.820,231.000 1.600 C 230.864 1.380,229.518 1.200,228.010 1.200 C 226.193 1.200,225.211 1.034,225.103 0.708 C 224.941 0.222,187.291 -0.126,178.300 0.275 " stroke="none" fill="#e514fc" fill-rule="evenodd"></path></g></svg>