<?xml version="1.0" encoding="UTF-8"?>
<svg version="1.1" xmlns="http://www.w3.org/2000/svg" width="512" height="512">
<path d="M0 0 C0.75078827 0.00182281 1.50157654 0.00364563 2.27511597 0.00552368 C13.22478781 0.05030076 23.61132095 0.50682038 34.25 3.3125 C35.57417385 3.62128635 36.89839408 3.92987388 38.22265625 4.23828125 C61.91173187 10.14441701 82.26913924 23.19740505 100.25 39.3125 C101.04019531 40.01761719 101.83039063 40.72273438 102.64453125 41.44921875 C113.67672246 51.8850753 122.287499 64.90100133 129.25 78.3125 C129.85457031 79.4571875 130.45914062 80.601875 131.08203125 81.78125 C134.71703746 88.93447901 137.33026535 96.23373656 139.5625 103.9375 C139.80500488 104.771604 140.04750977 105.60570801 140.29736328 106.46508789 C143.72479706 118.92374912 144.62730333 131.20853711 144.5625 144.0625 C144.55976578 145.1886824 144.55976578 145.1886824 144.55697632 146.33761597 C144.51219924 157.28728781 144.05567962 167.67382095 141.25 178.3125 C140.94121365 179.63667385 140.63262612 180.96089408 140.32421875 182.28515625 C136.03221689 199.51646151 127.89093573 216.16429688 116.78295898 229.99804688 C115.09569521 232.08905085 115.09569521 232.08905085 113.25 235.3125 C114.29998036 238.99023471 116.20522682 242.0571066 118.234375 245.27734375 C118.8337085 246.23237793 119.43304199 247.18741211 120.05053711 248.17138672 C121.01552124 249.69530029 121.01552124 249.69530029 122 251.25 C122.65943604 252.29945801 123.31887207 253.34891602 123.99829102 254.43017578 C127.42503182 259.87497222 130.87907047 265.30163083 134.35546875 270.71484375 C134.99967773 271.71974854 135.64388672 272.72465332 136.30761719 273.76000977 C137.54472598 275.68652555 138.78615219 277.61027687 140.03222656 279.53100586 C140.58749023 280.3947583 141.14275391 281.25851074 141.71484375 282.1484375 C142.205896 282.90688965 142.69694824 283.6653418 143.20288086 284.44677734 C144.25 286.3125 144.25 286.3125 144.25 288.3125 C136.89063332 287.69612924 129.85390946 286.22855994 122.65984726 284.58346176 C120.57492836 284.10754108 118.48845873 283.63906986 116.40139771 283.17263794 C110.4742668 281.84717942 104.5492231 280.51273911 98.62744141 279.16357422 C94.9883625 278.33502688 91.34676789 277.51844107 87.70334244 276.70923233 C86.32372003 276.4003648 84.94509438 276.0870073 83.5675621 275.7689476 C81.63987587 275.32418811 79.70840998 274.89590924 77.77685547 274.46826172 C76.68259247 274.22034882 75.58832947 273.97243591 74.46090698 273.7170105 C69.38962642 273.07812988 64.75712114 273.78863337 60.1484375 275.984375 C59.42108398 276.31687256 58.69373047 276.64937012 57.94433594 276.99194336 C57.17895508 277.34522705 56.41357422 277.69851074 55.625 278.0625 C38.02896463 285.84589913 19.99312903 288.54514679 0.875 288.5625 C-0.27216492 288.56401062 -0.27216492 288.56401062 -1.44250488 288.56555176 C-12.49617114 288.55568189 -23.00923911 288.16160305 -33.75 285.3125 C-34.4198291 285.13605957 -35.0896582 284.95961914 -35.77978516 284.77783203 C-39.79735668 283.70729563 -43.78063997 282.55174552 -47.75 281.3125 C-47.73428955 281.95050537 -47.7185791 282.58851074 -47.70239258 283.24584961 C-47.41775855 296.6212471 -47.58146183 309.28272775 -50.75 322.3125 C-50.97550537 323.3012915 -50.97550537 323.3012915 -51.20556641 324.31005859 C-57.31744693 350.49023217 -71.88276025 373.49047445 -90.75 392.3125 C-91.59691406 393.17101562 -92.44382812 394.02953125 -93.31640625 394.9140625 C-119.57535804 420.17076422 -155.22571189 432.79147127 -191.25 432.6875 C-191.99533997 432.68662384 -192.74067993 432.68574768 -193.50860596 432.68484497 C-214.03617471 432.60554027 -235.65061734 429.54342015 -253.69921875 419.03125 C-261.64408068 415.03930357 -272.16017794 419.13607928 -280.3218174 421.01097298 C-282.37685786 421.48295152 -284.4334893 421.94735845 -286.49064636 422.41001892 C-290.84944184 423.39173309 -295.20606793 424.38285913 -299.5625 425.375 C-304.63294792 426.52913397 -309.70424035 427.67931945 -314.77753258 428.82089043 C-316.79761439 429.27737889 -318.81614104 429.74033402 -320.83467102 430.20362854 C-322.67765022 430.61922279 -322.67765022 430.61922279 -324.55786133 431.04321289 C-325.63578445 431.28890518 -326.71370758 431.53459747 -327.82429504 431.78773499 C-330.54443917 432.27562987 -332.99513454 432.41592906 -335.75 432.3125 C-334.41445339 428.71750673 -332.80870421 425.5900018 -330.765625 422.34765625 C-330.16613037 421.39286377 -329.56663574 420.43807129 -328.94897461 419.4543457 C-328.30581299 418.43816162 -327.66265137 417.42197754 -327 416.375 C-326.01302124 414.79755005 -326.01302124 414.79755005 -325.00610352 413.18823242 C-321.59532755 407.75122876 -318.13312695 402.35692855 -314.57421875 397.015625 C-313.92098633 396.02425537 -313.26775391 395.03288574 -312.59472656 394.01147461 C-311.3426531 392.11653548 -310.07547277 390.23147493 -308.79199219 388.35766602 C-308.2302832 387.50358154 -307.66857422 386.64949707 -307.08984375 385.76953125 C-306.58831787 385.02678955 -306.08679199 384.28404785 -305.57006836 383.51879883 C-304.48242149 381.26007111 -304.48242149 381.26007111 -305.50634766 378.66870117 C-306.84915994 376.12463337 -308.38814396 374.05701897 -310.1875 371.8125 C-328.12755438 347.53297286 -335.97648831 318.8025247 -336 288.9375 C-336.00101212 287.78883957 -336.00101212 287.78883957 -336.00204468 286.61697388 C-335.98650998 275.54335077 -335.58802907 265.0738429 -332.75 254.3125 C-332.44121365 252.98832615 -332.13262612 251.66410592 -331.82421875 250.33984375 C-325.91808299 226.65076813 -312.86509495 206.29336076 -296.75 188.3125 C-296.04488281 187.52230469 -295.33976562 186.73210937 -294.61328125 185.91796875 C-284.1774247 174.88577754 -271.16149867 166.275001 -257.75 159.3125 C-256.6053125 158.70792969 -255.460625 158.10335937 -254.28125 157.48046875 C-247.12802099 153.84546254 -239.82876344 151.23223465 -232.125 149 C-231.290896 148.75749512 -230.45679199 148.51499023 -229.59741211 148.26513672 C-217.13824466 144.83756368 -204.85425812 143.93676953 -192 144 C-191.25020874 144.00149048 -190.50041748 144.00298096 -189.72790527 144.0045166 C-178.79793174 144.04359597 -168.3681574 144.49591885 -157.75 147.3125 C-157.0801709 147.48894043 -156.4103418 147.66538086 -155.72021484 147.84716797 C-151.70264332 148.91770437 -147.71936003 150.07325448 -143.75 151.3125 C-143.77356567 150.35549194 -143.77356567 150.35549194 -143.79760742 149.37915039 C-144.08224145 136.0037529 -143.91853817 123.34227225 -140.75 110.3125 C-140.52449463 109.3237085 -140.52449463 109.3237085 -140.29443359 108.31494141 C-134.58226386 83.84692465 -121.33598274 62.81876678 -104.75 44.3125 C-104.04488281 43.52230469 -103.33976563 42.73210937 -102.61328125 41.91796875 C-92.1774247 30.88577754 -79.16149867 22.275001 -65.75 15.3125 C-64.6053125 14.70792969 -63.460625 14.10335937 -62.28125 13.48046875 C-55.12802099 9.84546254 -47.82876344 7.23223465 -40.125 5 C-39.290896 4.75749512 -38.45679199 4.51499023 -37.59741211 4.26513672 C-25.13875088 0.83770294 -12.85396289 -0.06480333 0 0 Z " fill="#FEB933" transform="translate(351.75,39.6875)"/>
<path d="M0 0 C0.75078827 0.00182281 1.50157654 0.00364563 2.27511597 0.00552368 C13.22478781 0.05030076 23.61132095 0.50682038 34.25 3.3125 C35.57417385 3.62128635 36.89839408 3.92987388 38.22265625 4.23828125 C61.91173187 10.14441701 82.26913924 23.19740505 100.25 39.3125 C101.04019531 40.01761719 101.83039063 40.72273438 102.64453125 41.44921875 C113.67672246 51.8850753 122.287499 64.90100133 129.25 78.3125 C129.85457031 79.4571875 130.45914062 80.601875 131.08203125 81.78125 C134.71703746 88.93447901 137.33026535 96.23373656 139.5625 103.9375 C139.80500488 104.771604 140.04750977 105.60570801 140.29736328 106.46508789 C143.72479706 118.92374912 144.62730333 131.20853711 144.5625 144.0625 C144.55976578 145.1886824 144.55976578 145.1886824 144.55697632 146.33761597 C144.51219924 157.28728781 144.05567962 167.67382095 141.25 178.3125 C140.94121365 179.63667385 140.63262612 180.96089408 140.32421875 182.28515625 C136.03221689 199.51646151 127.89093573 216.16429688 116.78295898 229.99804688 C115.09569521 232.08905085 115.09569521 232.08905085 113.25 235.3125 C114.29998036 238.99023471 116.20522682 242.0571066 118.234375 245.27734375 C118.8337085 246.23237793 119.43304199 247.18741211 120.05053711 248.17138672 C121.01552124 249.69530029 121.01552124 249.69530029 122 251.25 C122.65943604 252.29945801 123.31887207 253.34891602 123.99829102 254.43017578 C127.42503182 259.87497222 130.87907047 265.30163083 134.35546875 270.71484375 C134.99967773 271.71974854 135.64388672 272.72465332 136.30761719 273.76000977 C137.54472598 275.68652555 138.78615219 277.61027687 140.03222656 279.53100586 C140.58749023 280.3947583 141.14275391 281.25851074 141.71484375 282.1484375 C142.205896 282.90688965 142.69694824 283.6653418 143.20288086 284.44677734 C144.25 286.3125 144.25 286.3125 144.25 288.3125 C136.89063332 287.69612924 129.85390946 286.22855994 122.65984726 284.58346176 C120.57492836 284.10754108 118.48845873 283.63906986 116.40139771 283.17263794 C110.4742668 281.84717942 104.5492231 280.51273911 98.62744141 279.16357422 C94.9883625 278.33502688 91.34676789 277.51844107 87.70334244 276.70923233 C86.32372003 276.4003648 84.94509438 276.0870073 83.5675621 275.7689476 C81.63987587 275.32418811 79.70840998 274.89590924 77.77685547 274.46826172 C76.68259247 274.22034882 75.58832947 273.97243591 74.46090698 273.7170105 C69.38962642 273.07812988 64.75712114 273.78863337 60.1484375 275.984375 C59.42108398 276.31687256 58.69373047 276.64937012 57.94433594 276.99194336 C57.17895508 277.34522705 56.41357422 277.69851074 55.625 278.0625 C38.02896463 285.84589913 19.99312903 288.54514679 0.875 288.5625 C-0.27216492 288.56401062 -0.27216492 288.56401062 -1.44250488 288.56555176 C-12.50220566 288.55567651 -23.00044284 288.14321672 -33.75 285.3125 C-34.41451172 285.14669434 -35.07902344 284.98088867 -35.76367188 284.81005859 C-39.80927067 283.79674518 -43.84335697 282.78344638 -47.75 281.3125 C-49.04048193 278.73153613 -49.0299324 276.29006663 -49.24291992 273.44848633 C-52.22474377 235.92689113 -71.90695705 202.4290608 -99.75 177.75 C-111.99195088 167.80341491 -126.18329463 159.45338333 -140.9921875 154.00390625 C-142.75 153.3125 -142.75 153.3125 -143.75 152.3125 C-144.8127517 138.2068865 -144.11675848 124.04506189 -140.75 110.3125 C-140.52449463 109.32588379 -140.52449463 109.32588379 -140.29443359 108.31933594 C-134.58314586 83.84916647 -121.33732544 62.82026494 -104.75 44.3125 C-104.04488281 43.52230469 -103.33976562 42.73210937 -102.61328125 41.91796875 C-92.1774247 30.88577754 -79.16149867 22.275001 -65.75 15.3125 C-64.03296875 14.40564453 -64.03296875 14.40564453 -62.28125 13.48046875 C-55.12802099 9.84546254 -47.82876344 7.23223465 -40.125 5 C-39.290896 4.75749512 -38.45679199 4.51499023 -37.59741211 4.26513672 C-25.13875088 0.83770294 -12.85396289 -0.06480333 0 0 Z " fill="#B3D3FE" transform="translate(351.75,39.6875)"/>
<path d="M0 0 C0.93714844 -0.01546875 1.87429687 -0.0309375 2.83984375 -0.046875 C6.99506091 -0.0232993 9.79729042 0.12765518 13.5078125 2.09375 C15.95220144 5.0461884 16.95141047 7.85395136 17.875 11.5 C18.072146 12.21913574 18.26929199 12.93827148 18.47241211 13.67919922 C19.17407648 16.28003515 19.83973976 18.8883435 20.5 21.5 C20.91451416 23.13050293 20.91451416 23.13050293 21.33740234 24.79394531 C22.86816537 30.83832507 24.37665571 36.88795007 25.87109375 42.94140625 C27.35809835 48.95481549 28.91525801 54.94285145 30.53515625 60.921875 C31.28437219 63.70034383 32.02027368 66.48102535 32.74609375 69.265625 C35.66784164 80.53750201 35.66784164 80.53750201 39.01953125 91.6875 C39.5 93.5 39.5 93.5 39.5 96.5 C33.89 96.5 28.28 96.5 22.5 96.5 C19.83333333 85.83333333 17.16666667 75.16666667 14.5 64.5 C4.93 64.5 -4.64 64.5 -14.5 64.5 C-14.891875 66.624375 -15.28375 68.74875 -15.6875 70.9375 C-17.36570897 79.65007087 -19.90630375 88.01791226 -22.5 96.5 C-28.11 96.5 -33.72 96.5 -39.5 96.5 C-36.90278349 85.24539512 -34.1194333 74.06633006 -31.14111328 62.90722656 C-30.08469231 58.94061928 -29.04313229 54.97011816 -28 51 C-27.58336529 49.41796033 -27.1666986 47.83592909 -26.75 46.25390625 C-25.70334106 42.27741997 -24.66356748 38.29916261 -23.625 34.32055664 C-23.00577778 31.95953004 -22.37849458 29.6007607 -21.75 27.2421875 C-20.88301107 23.98420566 -20.05669161 20.71871582 -19.25 17.4453125 C-18.83374684 15.81760253 -18.41709413 14.18999468 -18 12.5625 C-17.82275391 11.810896 -17.64550781 11.05929199 -17.46289062 10.28491211 C-16.60858398 7.02393371 -15.62607662 4.65587207 -13.5 2.02734375 C-9.02981956 -0.2484903 -4.94520418 -0.08162648 0 0 Z " fill="#815E1A" transform="translate(123.5,279.5)"/>
<path d="M0 0 C18.48 0 36.96 0 56 0 C56 5.28 56 10.56 56 16 C49.4 16 42.8 16 36 16 C36 37.12 36 58.24 36 80 C42.6 80 49.2 80 56 80 C56 85.28 56 90.56 56 96 C37.52 96 19.04 96 0 96 C0 90.72 0 85.44 0 80 C6.6 80 13.2 80 20 80 C20 58.88 20 37.76 20 16 C13.4 16 6.8 16 0 16 C0 10.72 0 5.44 0 0 Z " fill="#815D1A" transform="translate(180,280)"/>
<path d="M0 0 C42.24 0 84.48 0 128 0 C128 5.28 128 10.56 128 16 C85.76 16 43.52 16 0 16 C0 10.72 0 5.44 0 0 Z " fill="#2462B2" transform="translate(288,176)"/>
<path d="M0 0 C42.24 0 84.48 0 128 0 C128 5.28 128 10.56 128 16 C85.76 16 43.52 16 0 16 C0 10.72 0 5.44 0 0 Z " fill="#2462B2" transform="translate(288,128)"/>
<path d="M0 0 C31.68 0 63.36 0 96 0 C96 5.28 96 10.56 96 16 C64.32 16 32.64 16 0 16 C0 10.72 0 5.44 0 0 Z " fill="#2462B2" transform="translate(320,224)"/>
<path d="M0 0 C1.32 0 2.64 0 4 0 C5.14249828 4.23499198 6.28174652 8.47084057 7.41796875 12.70751953 C7.8050928 14.14916689 8.19310962 15.59057482 8.58203125 17.03173828 C9.14036246 19.10126699 9.69549498 21.1716308 10.25 23.2421875 C10.75273437 25.11173096 10.75273437 25.11173096 11.265625 27.01904297 C12 30 12 30 12 32 C5.4 32 -1.2 32 -8 32 C-7.24551995 26.71863964 -6.34286273 21.72679578 -5.125 16.5625 C-4.88330078 15.49418945 -4.88330078 15.49418945 -4.63671875 14.40429688 C-3.46886624 9.42055419 -1.87899608 4.76191293 0 0 Z " fill="#FBB732" transform="translate(122,296)"/>
</svg>
